# xmcd
#
# Track frame offsets:
#	150
#	16643
#	35467
#	50757
#	66511
#	82710
#	99924
#	116076
#	132634
#	151239
#
# Disc length: 2267 seconds
#
# Revision: 1
# Processed by: cddbd v1.5.2PL0 Copyright (c) Steve Scherf et al.
# Submitted via: audiograbber 1.80
#
DISCID=7a08d90a
DTITLE=Alphabeat - The spell
DYEAR=1900
DGENRE=
TTITLE0=The spell
TTITLE1=DJ
TTITLE2=Hole in my heart
TTITLE3=The beat is
TTITLE4=Heatwave
TTITLE5=Chess
TTITLE6=Heart faliure
TTITLE7=Always up with you
TTITLE8=Q&A
TTITLE9=The right thing
EXTD=
EXTT0=
EXTT1=
EXTT2=
EXTT3=
EXTT4=
EXTT5=
EXTT6=
EXTT7=
EXTT8=
EXTT9=
PLAYORDER=
